<svg width="144" height="71" viewBox="0 0 144 71" fill="none" xmlns="http://www.w3.org/2000/svg">
<path d="M0.0163048 0.320064C4.22774 0.274068 8.43917 0.320064 12.6547 0.320064H51.2262C51.2262 6.84031 51.2262 13.3606 51.2262 19.8808C49.9583 18.6264 48.7434 17.3134 47.4795 16.0548C47.239 15.783 46.8598 15.5321 46.9251 15.1098C46.9251 11.6364 46.9251 8.16164 46.9251 4.68548H4.34189C4.34189 8.15885 4.34189 11.6308 4.34189 15.1014C4.39897 15.5614 3.96682 15.8206 3.70997 16.1217C2.45021 17.3301 1.33722 18.7016 0 19.8139L0.0163048 0.320064Z" fill="black"/>
<path d="M19.9279 15.1098C21.8304 13.1585 23.733 11.2071 25.6355 9.2558C27.5394 11.2127 29.4515 13.1613 31.3432 15.1098C29.4434 17.0667 27.5272 19.0111 25.6355 20.9638C23.7357 19.0153 21.8332 17.0639 19.9279 15.1098Z" fill="black"/>
<path d="M86.5484 22.5318C88.1099 21.2105 90.4133 21.0599 92.2561 21.8335C92.9267 22.127 93.5002 22.6132 93.9074 23.2334C94.3147 23.8537 94.5383 24.5815 94.5514 25.3292H92.2031C92.1962 25.0202 92.1161 24.7175 91.9698 24.4472C91.8235 24.177 91.6154 23.9473 91.3633 23.7779C90.9126 23.5498 90.4156 23.4346 89.9131 23.4419C89.4106 23.4492 88.9169 23.5787 88.4727 23.8197C88.2828 23.9373 88.1258 24.1032 88.0167 24.3014C87.9077 24.4996 87.8504 24.7232 87.8504 24.9508C87.8504 25.1783 87.9077 25.402 88.0167 25.6001C88.1258 25.7983 88.2828 25.9642 88.4727 26.0818C90.1035 26.9181 92.0849 26.6087 93.577 27.7544C95.3178 28.9545 95.3219 31.8313 93.8012 33.2195C92.7575 34.198 91.2776 34.474 89.9078 34.4322C88.538 34.3903 87.16 34.0809 86.206 33.0774C85.5346 32.3241 85.1661 31.3382 85.1745 30.3176H87.4984C87.5334 30.8234 87.7313 31.3029 88.061 31.6808C88.754 32.3916 89.8303 32.4711 90.7476 32.3164C91.0576 32.2835 91.3556 32.1763 91.6177 32.0034C91.8797 31.8305 92.0984 31.5968 92.2561 31.3212C92.3903 31.004 92.4004 30.646 92.2843 30.3214C92.1681 29.9968 91.9347 29.7304 91.6323 29.5775C90.4093 28.9127 88.9538 29.0047 87.6981 28.4276C87.1932 28.2419 86.7361 27.9411 86.3611 27.5478C85.9861 27.1545 85.703 26.679 85.5333 26.1571C85.34 25.5171 85.3331 24.8331 85.5135 24.1891C85.6938 23.5451 86.0535 22.9691 86.5484 22.5318Z" fill="black"/>
<path d="M121.08 22.5235C122.657 21.2022 124.977 21.06 126.812 21.8586C127.471 22.1573 128.032 22.6432 128.431 23.259C128.829 23.8748 129.046 24.5947 129.058 25.3334H126.71C126.687 24.8094 126.47 24.3142 126.102 23.9494C125.332 23.3305 124.239 23.3598 123.351 23.6399C123.017 23.7354 122.732 23.9565 122.551 24.259C122.37 24.5615 122.308 24.9229 122.376 25.2707C122.474 25.8812 123.061 26.2031 123.599 26.362C125.136 26.8387 126.889 26.7802 128.206 27.8464C129.523 28.9127 129.747 30.8989 128.985 32.3331C128.361 33.5248 127.06 34.1646 125.797 34.3444C124.313 34.5367 122.694 34.4531 121.385 33.6335C120.85 33.2739 120.413 32.7805 120.115 32.1996C119.816 31.6188 119.667 30.9697 119.681 30.3135H122.013C122.047 30.8289 122.252 31.317 122.592 31.6976C123.334 32.4251 124.459 32.4837 125.413 32.283C126.058 32.1408 126.755 31.7185 126.869 30.9951C126.91 30.693 126.852 30.3856 126.704 30.1208C126.557 29.856 126.328 29.6488 126.053 29.5316C124.769 28.8918 123.265 28.988 121.977 28.3315C121.462 28.1166 121.008 27.7755 120.652 27.338C120.297 26.9005 120.051 26.3801 119.938 25.8226C119.821 25.2183 119.865 24.5926 120.066 24.0119C120.267 23.4312 120.617 22.9169 121.08 22.5235Z" fill="black"/>
<path d="M59.2536 34.106C59.2536 29.9832 59.2536 25.8645 59.2536 21.7416C60.4155 21.7416 61.5774 21.7416 62.7393 21.7416C63.5547 24.6058 64.3701 27.4659 65.2385 30.3219C66.1272 27.4743 66.91 24.5891 67.7621 21.729H71.2437C71.2437 25.8491 71.2437 29.9706 71.2437 34.0935H68.9688C68.9403 31.0703 69.0178 28.043 68.9281 25.0198C68.1127 28.0555 67.2525 31.0661 66.4208 34.0935H64.0684C63.2245 31.1163 62.4377 28.1182 61.557 25.1494C61.4877 28.1308 61.557 31.1121 61.5285 34.0935C60.7743 34.1144 60.0119 34.1144 59.2536 34.106Z" fill="black"/>
<path d="M72.5769 34.106C72.5769 29.9831 72.5769 25.8603 72.5769 21.7374C73.3923 21.7374 74.1832 21.7374 74.9864 21.7374C75.0271 25.8603 74.9864 29.9873 74.9864 34.1102C74.1995 34.1144 73.3882 34.1144 72.5769 34.106Z" fill="black"/>
<path d="M76.0015 21.7457H84.355C84.355 22.4621 84.355 23.1786 84.355 23.895H81.4156C81.4156 27.3015 81.4156 30.7065 81.4156 34.1102H78.9491C78.9491 30.7038 78.9491 27.2987 78.9491 23.895H76.0096C76.0042 23.1786 76.0015 22.4621 76.0015 21.7457Z" fill="black"/>
<path d="M95.701 30.2968C95.701 27.4478 95.701 24.5975 95.701 21.7457H98.0778C98.0778 24.5975 98.0778 27.4534 98.0778 30.3051C98.0416 30.8011 98.187 31.2931 98.4855 31.685C98.7494 31.9495 99.0662 32.1519 99.414 32.2782C99.7618 32.4046 100.132 32.4519 100.499 32.4167C100.882 32.4332 101.263 32.3561 101.611 32.1918C101.959 32.0275 102.264 31.7807 102.501 31.4717C102.741 31.0679 102.848 30.5961 102.807 30.1253C102.807 27.3377 102.807 24.5501 102.807 21.7625H105.229C105.229 24.617 105.229 27.4715 105.229 30.326C105.251 31.2664 104.964 32.1872 104.413 32.9394C103.565 34.0308 102.142 34.4071 100.838 34.4615C99.5333 34.5158 98.0167 34.3611 96.9241 33.4705C96.0353 32.7053 95.6888 31.455 95.701 30.2968Z" fill="black"/>
<path d="M106.048 21.7457H111.479C112.49 21.7457 113.578 21.9506 114.357 22.6615C114.866 23.1739 115.176 23.8588 115.228 24.5883C115.281 25.3178 115.072 26.0419 114.642 26.6255C114.32 26.9999 113.938 27.3153 113.513 27.5579C114.257 27.8845 114.871 28.4611 115.254 29.1929C115.591 29.8369 115.715 30.5759 115.607 31.2985C115.499 32.021 115.164 32.688 114.655 33.1987C113.906 33.8338 112.954 34.1603 111.984 34.1144C110.007 34.1144 108.026 34.1144 106.048 34.1144C106.048 29.9915 106.048 25.8686 106.048 21.7457ZM108.462 23.7235C108.462 24.7229 108.462 25.7265 108.462 26.7258C109.457 26.7258 110.451 26.7258 111.45 26.7258C111.789 26.715 112.113 26.5841 112.368 26.3553C112.623 26.1266 112.793 25.8142 112.848 25.4714C112.883 25.2645 112.875 25.0524 112.824 24.8491C112.772 24.6459 112.679 24.4562 112.551 24.2927C112.422 24.1293 112.261 23.9958 112.079 23.9013C111.896 23.8067 111.695 23.7533 111.491 23.7445C110.484 23.7026 109.473 23.7319 108.462 23.7235ZM108.462 28.6576C108.462 29.8493 108.462 31.0369 108.462 32.2244C109.412 32.2244 110.362 32.2244 111.316 32.2244C111.564 32.23 111.811 32.1844 112.042 32.0903C112.273 31.9962 112.484 31.8556 112.661 31.6766C112.979 31.3283 113.151 30.8662 113.14 30.3893C113.129 29.9125 112.937 29.4589 112.604 29.1259C112.192 28.7912 111.673 28.6257 111.148 28.6618C110.252 28.6576 109.359 28.6702 108.466 28.6618L108.462 28.6576Z" fill="black"/>
<path d="M116.456 34.1019C116.456 29.9832 116.456 25.8644 116.456 21.7457H118.878V34.1102C118.067 34.1102 117.272 34.1186 116.456 34.1019Z" fill="black"/>
<path d="M130.216 21.7457H132.617C132.617 23.3514 132.617 24.9571 132.617 26.5669H137.42C137.42 24.9612 137.42 23.3556 137.42 21.7499H139.801V34.1144H137.42C137.42 32.3164 137.42 30.5184 137.42 28.7204C135.818 28.7204 134.211 28.6953 132.609 28.7204C132.609 30.51 132.609 32.2997 132.609 34.0935H130.208C130.213 29.9845 130.216 25.8686 130.216 21.7457Z" fill="black"/>
<path d="M141.554 34.106C141.554 29.9831 141.554 25.8644 141.554 21.7457C142.369 21.7457 143.185 21.7457 144 21.7457V34.0977C143.193 34.1088 142.377 34.1116 141.554 34.106Z" fill="black"/>
<path d="M6.97557 28.4067L12.6832 34.2607C10.7807 36.2121 8.87812 38.1634 6.97557 40.1147L1.26791 34.2607C3.17046 32.3122 5.07302 30.3609 6.97557 28.4067Z" fill="black"/>
<path d="M38.5878 34.2733C40.4903 32.308 42.3929 30.3566 44.2955 28.4193C46.198 30.3706 48.1006 32.3219 50.0031 34.2733C48.091 36.226 46.1994 38.2038 44.2669 40.1273C42.3997 38.1703 40.4917 36.226 38.5878 34.2733Z" fill="black"/>
<path d="M89.9567 36.6065C90.9422 36.0462 92.0638 35.7878 93.1883 35.8619C94.3127 35.936 95.3928 36.3396 96.3003 37.0246C97.2084 37.8024 97.8109 38.8912 97.9963 40.0896H95.4809C95.3112 39.5252 95.0104 39.0115 94.6043 38.5927C94.0744 38.1555 93.4043 37.9371 92.7255 37.9804C92.0467 38.0237 91.4082 38.3256 90.9351 38.8268C90.0627 39.7718 89.7814 41.135 89.7936 42.402C89.8058 43.6689 90.1565 44.9777 91.0615 45.8642C91.5472 46.3336 92.1868 46.5992 92.854 46.6084C93.5212 46.6177 94.1676 46.3701 94.6655 45.9144C95.0465 45.4884 95.3257 44.9773 95.4809 44.4216C96.3289 44.4216 97.1782 44.4216 98.0289 44.4216C97.9388 45.1897 97.6733 45.9251 97.2539 46.5681C96.8345 47.2111 96.2732 47.7435 95.6154 48.1222C93.4384 49.2804 90.4133 48.9919 88.7744 47.0015C87.4616 45.4126 87.111 43.2048 87.3434 41.1852C87.5513 39.3788 88.3952 37.539 89.9567 36.6065Z" fill="black"/>
<path d="M124.337 36.3891C126.282 35.5026 128.781 35.6908 130.424 37.1459C131.246 37.9183 131.796 38.9471 131.989 40.0729C131.146 40.0729 130.302 40.0729 129.458 40.0729C129.298 39.5342 129.019 39.0406 128.642 38.6303C128.126 38.1773 127.463 37.9389 126.784 37.9621C126.105 37.9853 125.459 38.2685 124.973 38.7558C124.097 39.6548 123.791 40.9803 123.775 42.218C123.758 43.4557 124.088 44.8857 124.998 45.814C125.474 46.2899 126.107 46.5664 126.772 46.5896C127.437 46.6128 128.086 46.381 128.593 45.9395C129 45.5045 129.298 44.9751 129.462 44.3965H132.002C131.92 45.0908 131.696 45.7596 131.344 46.3591C130.993 46.9586 130.523 47.4753 129.963 47.8755C127.684 49.3641 124.235 49.0421 122.568 46.7381C121.308 45.0154 121.051 42.7072 121.406 40.6332C121.703 38.8812 122.702 37.1501 124.337 36.3891Z" fill="black"/>
<path d="M59.2536 36.1633C62.2257 36.1633 65.1977 36.1633 68.1698 36.1633C68.1698 36.8825 68.1698 37.6031 68.1698 38.3251C66.0212 38.3251 63.8686 38.3251 61.7201 38.3251C61.6875 39.1948 61.7201 40.0645 61.6957 40.9343C63.6159 40.9636 65.5361 40.9343 67.4563 40.9343V43.0835H61.7038C61.7038 44.1791 61.7038 45.2732 61.7038 46.366H68.3492C68.3492 47.0824 68.3492 47.7988 68.3492 48.5152C65.3241 48.5152 62.299 48.5152 59.274 48.5152C59.2414 44.4049 59.2658 40.2903 59.2536 36.1633Z" fill="black"/>
<path d="M69.0015 36.1549C69.8168 36.1549 70.6322 36.1549 71.4476 36.1549C71.4476 39.5544 71.4476 42.9539 71.4476 46.3534H77.1267C77.1267 47.0684 77.1267 47.7877 77.1267 48.5027C74.4088 48.5027 71.699 48.5027 68.9974 48.5027C69.0028 44.3909 69.0042 40.275 69.0015 36.1549Z" fill="black"/>
<path d="M77.7953 36.1549H86.6952C86.6952 36.8741 86.6952 37.5947 86.6952 38.3167C84.5344 38.3167 82.3737 38.3167 80.217 38.3167C80.217 39.1781 80.217 40.0436 80.217 40.905C82.1372 40.9343 84.0574 40.905 85.9777 40.905V43.0543H80.2415C80.2415 44.1498 80.2415 45.2439 80.2415 46.3367H86.8787C86.8787 47.0531 86.8787 47.7695 86.8787 48.486C83.8495 48.486 80.8163 48.486 77.7872 48.486C77.8035 44.3923 77.7872 40.2903 77.7953 36.1549Z" fill="black"/>
<path d="M98.0493 36.1549H106.415V38.3167C105.433 38.3167 104.454 38.3167 103.472 38.3167C103.472 41.7162 103.472 45.1157 103.472 48.5152H100.989C100.989 45.1143 100.989 41.7134 100.989 38.3125H98.0493C98.0493 37.5933 98.0493 36.8741 98.0493 36.1549Z" fill="black"/>
<path d="M107.398 36.1466H112.995C114.015 36.103 115.015 36.4352 115.816 37.0832C116.807 37.9822 117.039 39.5377 116.632 40.7796C116.465 41.1941 116.216 41.5686 115.901 41.8795C115.586 42.1904 115.212 42.4309 114.801 42.586C115.23 42.7717 115.605 43.0673 115.891 43.4444C116.176 43.8214 116.363 44.2673 116.432 44.7394C116.513 46.0037 116.676 47.2609 116.921 48.5027H114.475C114.243 47.3904 114.308 46.2364 114.067 45.1283C113.979 44.7592 113.785 44.4253 113.512 44.1686C113.238 43.9119 112.897 43.7439 112.53 43.6857C111.65 43.6178 110.767 43.5982 109.885 43.6272C109.885 45.2523 109.885 46.8775 109.885 48.5027H107.438C107.411 44.3854 107.398 40.2667 107.398 36.1466ZM109.844 38.2958C109.844 39.4109 109.844 40.5259 109.844 41.641H112.665C112.915 41.6529 113.165 41.6071 113.395 41.5069C113.626 41.4067 113.831 41.2546 113.997 41.0619C114.162 40.8692 114.284 40.6409 114.352 40.3937C114.42 40.1465 114.433 39.8869 114.39 39.6339C114.33 39.2584 114.142 38.917 113.858 38.6716C113.575 38.4262 113.215 38.2929 112.844 38.2958C111.841 38.2791 110.843 38.3042 109.844 38.2958Z" fill="black"/>
<path d="M117.863 36.1549H120.309C120.309 40.275 120.309 44.3965 120.309 48.5194H117.863C117.863 44.3993 117.863 40.2778 117.863 36.1549Z" fill="black"/>
<path d="M19.9279 53.4368C21.8359 51.484 23.7357 49.5229 25.6355 47.5828C27.5476 49.5313 29.4393 51.4966 31.3432 53.4368C29.4352 55.3895 27.5435 57.3548 25.6355 59.2908L19.9279 53.4368Z" fill="black"/>
<path d="M19.8667 64.3336C20.8533 63.2589 21.8807 62.2428 22.8999 61.1849L25.6437 63.999L28.3956 61.1975C29.4148 62.2303 30.434 63.2882 31.441 64.3127C29.5289 66.3114 27.5924 68.2892 25.6559 70.2586C23.6949 68.3059 21.8073 66.2863 19.8667 64.3336Z" fill="black"/>
<path d="M12.0513 12.233C13.4374 10.8196 14.8154 9.39794 16.1975 7.98462H19.247V11.1123L15.3495 15.1056C18.77 18.6347 22.2109 22.1429 25.6273 25.6679C29.0519 22.1429 32.4888 18.6347 35.9093 15.1014C34.6155 13.7745 33.3232 12.4448 32.0322 11.1123C32.0322 10.0698 32.0322 9.02719 32.0322 7.98462H35.0694C36.3931 9.3394 37.7167 10.6942 39.0403 12.049C39.2931 12.2288 39.2156 12.5633 39.236 12.8309C39.236 14.5411 39.236 16.2471 39.236 17.9573C35.719 21.5812 32.202 25.1968 28.685 28.804C29.4555 29.5733 30.2057 30.3595 30.9681 31.1372C34.4905 27.5328 37.9966 23.9117 41.5191 20.3073C43.3781 20.3407 45.2494 20.2488 47.1004 20.3491C48.4729 21.7429 49.8319 23.1367 51.1772 24.5305C51.3077 25.5634 51.1772 26.6213 51.2302 27.6917C50.2192 27.6917 49.1918 27.6917 48.2011 27.6917C46.8924 26.3704 45.6001 25.0323 44.2995 23.6984C40.8695 27.2331 37.4435 30.7581 34.0217 34.2733C37.4585 37.7857 40.8708 41.3315 44.3158 44.8314C45.6164 43.5101 46.8639 42.126 48.2133 40.859C49.2203 40.8172 50.2273 40.859 51.2343 40.859C51.1935 41.9086 51.3118 42.9832 51.1813 44.0202C49.9583 45.3499 48.6373 46.6294 47.3817 47.9466C47.2349 48.0636 47.1085 48.2769 46.8965 48.2476C45.1068 48.2476 43.3211 48.2476 41.5313 48.2476C31.687 38.1509 21.8562 28.0541 12.0391 17.9573C12.0472 16.0381 12.0268 14.1397 12.0513 12.233Z" fill="#FF0000"/>
<path d="M62.9391 9.66974H65.1488L68.818 19.7052H66.5757L65.8418 17.4807H62.2093C61.9525 18.2166 61.6956 18.9525 61.4551 19.6968C60.7253 19.6968 59.9997 19.6968 59.2699 19.6968C60.4848 16.3517 61.7079 13.0093 62.9391 9.66974ZM64.0236 12.1284C63.6159 13.3578 63.1756 14.5829 62.7556 15.8081H65.2589C64.843 14.5829 64.4394 13.3536 64.0195 12.1326L64.0236 12.1284Z" fill="#FF0000"/>
<path d="M69.3317 9.66974H76.2053C76.2053 10.2886 76.2053 10.9074 76.2053 11.5263C74.6316 11.5263 73.0539 11.5263 71.4802 11.5263C71.4802 12.2915 71.4802 13.0567 71.4802 13.8219H75.5571V15.553H71.4802C71.4802 16.9287 71.4802 18.3044 71.4802 19.6801H69.3317C69.329 16.3489 69.329 13.0121 69.3317 9.66974Z" fill="#FF0000"/>
<path d="M77.1308 19.6926C77.1308 16.3475 77.1308 13.0023 77.1308 9.65717C79.4139 9.65717 81.6969 9.65717 83.9841 9.65717C83.9841 10.276 83.9841 10.9116 83.9841 11.5179H79.2793C79.2793 12.2845 79.2793 13.0525 79.2793 13.8219H83.3562V15.553H79.2793V19.6801L77.1308 19.6926Z" fill="#FF0000"/>
<path d="M3.89341 20.6376C4.04017 20.5038 4.17471 20.2989 4.39894 20.3324C6.18462 20.3324 7.96622 20.3324 9.74783 20.3324C19.5813 30.4236 29.4107 40.5189 39.236 50.6185C39.236 52.521 39.236 54.4236 39.236 56.3261C37.8458 57.7395 36.476 59.1737 35.0857 60.5912H32.0444C32.0444 59.5458 32.0444 58.5005 32.0444 57.4551C33.3354 56.1226 34.6305 54.7943 35.9297 53.4702C32.4969 49.9578 29.0805 46.4245 25.6436 42.9121C22.2109 46.4203 18.8067 49.9578 15.3617 53.4535C16.6419 54.8083 17.9587 56.1254 19.2551 57.4635C19.2551 58.5047 19.2551 59.5542 19.2551 60.5912H16.2016C14.8154 59.1779 13.4537 57.7395 12.0554 56.3387C12.035 54.4319 12.0554 52.5252 12.0554 50.6227C15.5656 46.9974 19.1002 43.4013 22.6104 39.7719C21.8481 38.9899 21.0898 38.2038 20.3233 37.4302C16.8117 41.0542 13.2947 44.6669 9.77229 48.2685C7.98661 48.2685 6.20093 48.2685 4.41525 48.2685C4.19102 48.302 4.06056 48.0929 3.91379 47.9633C2.65403 46.6419 1.34943 45.3624 0.101898 44.0202C0.101898 42.9706 0.101898 41.9295 0.101898 40.8757C1.10074 40.8757 2.10365 40.8757 3.10249 40.8757C4.40302 42.2013 5.69539 43.5393 6.99592 44.8648C10.4178 41.3441 13.8438 37.8247 17.2738 34.3067C13.8533 30.7776 10.4124 27.2694 6.99185 23.7402C5.69132 25.0699 4.40302 26.408 3.10249 27.7377C2.10365 27.7377 1.10481 27.7377 0.105973 27.7377C0.105973 26.6882 0.105973 25.647 0.105973 24.5933C1.33312 23.2176 2.63364 21.9422 3.89341 20.6376Z" fill="#FF0000"/>
<path d="M60.2239 52.2576C61.6589 50.1083 64.9164 49.7111 66.8855 51.2917C67.6663 51.9572 68.1647 52.9077 68.2757 53.9427C67.5867 53.9427 66.8977 53.9427 66.2047 53.9427C66.1308 53.6425 65.9993 53.3604 65.8177 53.113C65.6361 52.8656 65.4082 52.6579 65.1473 52.5021C64.8864 52.3463 64.5978 52.2456 64.2984 52.2057C63.999 52.1659 63.6949 52.1878 63.4038 52.2701C62.3398 52.4834 61.6671 53.5246 61.4999 54.5825C61.292 55.7993 61.3899 57.2 62.2012 58.1785C63.0736 59.2155 64.9612 59.3117 65.7603 58.1325C66.0227 57.7097 66.1963 57.2355 66.2699 56.7401H68.3491C68.3111 57.4093 68.1269 58.0611 67.81 58.6474C67.4932 59.2337 67.0518 59.7394 66.5186 60.127C64.4475 61.4651 61.3083 60.8755 60.0323 58.6635C59.4821 57.6825 59.2087 56.5639 59.2425 55.4327C59.2764 54.3015 59.6161 53.2022 60.2239 52.2576Z" fill="#FF0000"/>
<path d="M69.458 50.5725H71.6106C71.6106 52.797 71.5739 55.0257 71.6351 57.2628C71.6315 57.6699 71.7727 58.0644 72.0324 58.3723C72.2921 58.6802 72.6524 58.8804 73.0457 58.9354C73.7673 59.0232 74.6438 59.0357 75.1861 58.4587C75.7283 57.8817 75.6142 56.9952 75.6264 56.2467C75.6264 54.3567 75.6264 52.4834 75.6264 50.5809H77.7871C77.7871 52.6925 77.7871 54.8083 77.7871 56.9241C77.7871 57.9778 77.4977 59.1152 76.6945 59.8511C75.6631 60.771 74.2076 60.9383 72.8989 60.8128C72.3665 60.7912 71.8447 60.6537 71.3681 60.4093C70.8915 60.1649 70.4711 59.8192 70.1348 59.3953C69.6282 58.5639 69.394 57.5881 69.4662 56.6105C69.4621 54.5825 69.454 52.5754 69.458 50.5725Z" fill="#FF0000"/>
<path d="M79.3119 50.5725C80.8693 50.5725 82.4266 50.5725 83.9881 50.5725C84.5629 50.5589 85.13 50.7107 85.6251 51.0108C86.1201 51.3108 86.5233 51.7471 86.7889 52.2702C87.4086 53.6751 87.1192 55.6404 85.7575 56.4767C84.4692 57.2795 82.9036 56.8948 81.4767 56.9952C81.4767 58.1952 81.4767 59.3953 81.4767 60.5954C80.7592 60.5954 80.0417 60.5954 79.3241 60.5954C79.2997 57.267 79.316 53.9176 79.3119 50.5725ZM81.4727 52.2911V55.285C82.3573 55.2557 83.2665 55.3853 84.1349 55.1512C85.3131 54.825 85.3212 52.7761 84.1349 52.4374C83.2787 52.1907 82.3614 52.3287 81.4727 52.2911Z" fill="#FF0000"/>
<path d="M91.8565 51.3419C92.5201 50.8252 93.3335 50.5518 94.1665 50.5655C94.9996 50.5791 95.804 50.879 96.4512 51.4171C97.036 51.9873 97.3784 52.7707 97.4043 53.5979C97.4302 54.425 97.1376 55.2294 96.5898 55.8369C95.5013 57.0077 93.895 57.5513 92.9206 58.8685C94.429 58.8685 95.9375 58.8685 97.45 58.8685V60.5996C95.0977 60.5996 92.7494 60.5996 90.4011 60.5996C90.3894 59.6597 90.6963 58.7448 91.2695 58.0113C92.2153 56.8614 93.577 56.2132 94.694 55.2724C94.9826 55.05 95.2012 54.7456 95.323 54.3971C95.4447 54.0486 95.4642 53.6711 95.379 53.3113C95.3106 53.083 95.1879 52.8757 95.0219 52.7081C94.8559 52.5406 94.6518 52.4181 94.428 52.3517C94.2043 52.2853 93.968 52.2771 93.7404 52.3278C93.5128 52.3786 93.3011 52.4867 93.1244 52.6423C92.6148 53.1274 92.5455 53.8967 92.4844 54.549H90.6172C90.6212 53.3782 90.9474 52.1196 91.8565 51.3419Z" fill="#FF0000"/>
<path d="M100.777 50.6603C101.947 50.4094 103.329 50.6979 104.087 51.714C104.943 52.843 105.102 54.34 105.098 55.724C105.094 57.1081 104.927 58.5005 104.12 59.6044C103.211 60.8588 101.429 61.0637 100.1 60.4783C99.0033 59.9807 98.4692 58.7639 98.2369 57.614C97.9449 56.0608 98.0162 54.4587 98.4448 52.9392C98.5929 52.3768 98.8886 51.8669 99.2998 51.465C99.7111 51.0632 100.222 50.7848 100.777 50.6603ZM101.074 52.3329C100.856 52.4554 100.667 52.6257 100.521 52.8317C100.374 53.0377 100.274 53.2742 100.226 53.5246C100.033 54.4218 99.9689 55.343 100.035 56.2592C100 57.0774 100.183 57.8898 100.565 58.6092C100.673 58.7766 100.819 58.9148 100.99 59.0122C101.161 59.1097 101.353 59.1636 101.549 59.1693C101.745 59.1751 101.939 59.1325 102.115 59.0452C102.292 58.9579 102.445 58.8285 102.562 58.6677C103.056 57.9694 103.105 57.0704 103.141 56.2425C103.141 55.1721 103.198 54.0514 102.774 53.0521C102.64 52.7269 102.387 52.4687 102.069 52.3327C101.751 52.1967 101.394 52.1937 101.074 52.3245V52.3329Z" fill="#FF0000"/>
<path d="M107.002 51.484C108.441 50.1 111.12 50.2923 112.241 52.0067C112.604 52.6113 112.762 53.3227 112.688 54.0289C112.614 54.7351 112.313 55.3961 111.833 55.908C110.741 57.0286 109.183 57.5806 108.237 58.8726C109.746 58.8726 111.254 58.8726 112.763 58.8726C112.763 59.4497 112.763 60.0267 112.763 60.6037H105.706C105.708 59.9042 105.878 59.216 106.2 58.5997C106.523 57.9835 106.989 57.4583 107.557 57.0704C108.429 56.3429 109.469 55.816 110.264 55.009C110.508 54.7474 110.669 54.4153 110.725 54.0573C110.78 53.6993 110.727 53.3325 110.574 53.0061C110.464 52.8186 110.315 52.6588 110.137 52.5385C109.959 52.4182 109.758 52.3405 109.546 52.3111C109.335 52.2818 109.121 52.3016 108.918 52.3691C108.715 52.4365 108.53 52.5499 108.376 52.7008C107.915 53.1901 107.854 53.9093 107.793 54.5532H105.934C105.9 53.9941 105.978 53.4338 106.161 52.9063C106.345 52.3787 106.631 51.8949 107.002 51.484Z" fill="#FF0000"/>
<path d="M114.549 51.5802C115.617 50.4178 117.464 50.284 118.809 50.9906C119.304 51.2532 119.714 51.6588 119.987 52.1574C120.26 52.6561 120.385 53.2258 120.346 53.7964C120.326 54.2974 120.194 54.787 119.961 55.2277C119.728 55.6684 119.399 56.0485 119 56.3387C117.953 57.175 116.701 57.7604 115.882 58.8476C117.39 58.8476 118.899 58.8476 120.407 58.8476V60.5787C118.055 60.5787 115.706 60.5787 113.358 60.5787C113.35 59.6406 113.656 58.7281 114.226 57.9945C115.168 56.8488 116.522 56.2007 117.639 55.2683C117.935 55.0444 118.159 54.7349 118.282 54.3796C118.406 54.0242 118.423 53.6392 118.332 53.2737C118.262 53.0467 118.137 52.8412 117.971 52.6755C117.804 52.5099 117.599 52.3893 117.376 52.3246C117.152 52.26 116.917 52.2532 116.69 52.305C116.464 52.3568 116.253 52.4655 116.077 52.6214C115.572 53.1106 115.503 53.8758 115.441 54.524H113.57C113.524 53.4515 113.873 52.4006 114.549 51.5802Z" fill="#FF0000"/>
</svg>
